<?xml version="1.0" standalone="no"?>
<!DOCTYPE svg PUBLIC "-//W3C//DTD SVG 1.1//EN" "http://www.w3.org/Graphics/SVG/1.1/DTD/svg11.dtd">
<svg xmlns="http://www.w3.org/2000/svg" id="Layer_2" data-name="Layer 2" viewBox="0 0 165.33 233.22" width="165.3300018310547" height="233.22000122070312">
  <g id="Layer_1-2" data-name="Layer 1">
    <g>
      <path d="m82.87,49.97c-18.32,0-32.9,14.99-32.9,33.32s14.58,33.32,32.9,33.32,32.9-14.99,32.9-33.32-14.58-33.32-32.9-33.32Zm0,55.81c-12.08,0-22.07-9.99-22.07-22.49s9.99-22.49,22.07-22.49,22.07,9.99,22.07,22.49-9.99,22.49-22.07,22.49Z"/>
      <path d="m144.51,58.3h-2.08c.42-.42.83-1.25,1.25-1.67,4.16-3.75,6.25-9.58,5.41-15.83-.83-5.83-3.33-11.24-7.91-15.83l-.83-.83c-4.16-4.58-9.99-7.5-15.83-7.91-5.83-.42-11.66,1.25-15.83,5.41-.83.42-1.25.83-1.67,1.25v-2.08c0-11.66-10.83-20.82-24.15-20.82h-1.25c-13.33,0-24.15,9.16-24.15,20.82v2.08c-.42,0-.83-.42-.83-1.25-3.75-4.16-9.58-6.25-15.83-5.41-5.83.83-11.24,3.33-15.83,7.91l-.83.83c-9.58,9.58-10.41,23.74-2.5,32.07.42.83.83,1.25,1.25,1.67h-2.08c-11.66,0-20.82,10.83-20.82,24.15v1.25c0,13.33,9.16,24.15,20.82,24.15h2.08c-.42.42-.83,1.25-1.25,1.67-7.91,8.33-7.08,22.49,2.5,32.07l.83.42c4.16,4.58,9.99,7.5,15.83,7.91,5.83.42,11.66-1.25,15.83-5.41.83-.42,1.25-.83,1.67-1.25v2.08c0,10.16,8.22,18.42,19.16,20.38v24.92c-2.57-3.18-5.41-5.86-8.33-8.65l-.42-.42c-9.58-9.16-18.32-17.07-46.23-16.24-1.25,0-2.92.42-3.75,1.67-1.25.83-1.67,2.5-1.67,3.75.83,28.32,9.58,36.23,19.16,45.39l.42.42c9.16,8.75,17.07,16.24,41.65,16.24h8.75c24.57,0,32.48-7.5,41.23-16.24l.42-.42c9.58-9.16,18.32-17.07,19.16-45.39.42-2.92-2.08-5.41-5-5.41-27.9-.83-36.65,7.08-46.23,16.24l-.42.42c-2.76,2.64-5.46,5.19-7.91,8.14v-24.34c11.13-1.82,19.48-10.16,18.74-20.45v-2.08c.42.42,1.25.83,1.67,1.25,7.91,8.33,22.07,7.08,31.65-2.5l.83-.83c9.58-9.58,10.41-23.74,2.5-32.07-.42-.83-.83-1.25-1.25-1.67h2.08c11.66,0,20.82-10.83,20.82-24.15v-1.25c0-13.33-9.16-24.15-20.82-24.15ZM44.14,209.06l-.42-.42c-8.33-7.5-13.74-12.91-15.41-32.07,19.16,0,24.57,5.41,32.9,13.33l.42.42c8.33,7.5,13.74,12.91,15.41,32.07-19.16-.42-24.57-5.41-32.9-13.33Zm59.55-18.74l.42-.42c8.33-7.91,13.74-12.91,32.9-13.33-1.25,19.16-7.08,24.57-15.41,32.07l-.42.42c-8.33,7.91-13.74,12.91-32.9,13.33,1.67-19.16,7.08-24.15,15.41-32.07Zm51.22-107.03c0,7.08-4.58,13.33-9.99,13.33-8.33,0-11.66,4.16-12.49,6.66-.83,2.5-1.67,7.5,4.58,13.74,1.67,2.08,2.5,4.58,2.08,7.5-.42,2.92-2.08,6.66-4.58,9.16l-.83.83c-5.41,5-12.91,6.25-16.66,2.5-5.83-5.83-10.83-5-13.33-4.16-2.5,1.25-6.66,4.16-6.66,12.91,0,5.41-6.25,9.99-13.33,9.99h-1.25c-7.08,0-13.33-4.58-13.33-9.99,0-8.33-4.16-11.66-6.66-12.49-.83-.42-1.67-.83-3.33-.83-2.5,0-5.83,1.25-9.58,5.41-2.08,1.67-4.58,2.5-7.5,2.08-3.33-.42-6.66-2.08-9.16-4.58l-.83-.83c-5-5.41-6.25-12.91-2.5-16.66,5.83-5.83,5-10.83,4.16-13.33-1.25-2.5-4.16-6.66-12.91-6.66-5.41,0-9.99-5.83-9.99-13.33v-1.25c0-7.08,4.58-13.33,9.99-13.33,8.33,0,11.66-4.16,12.49-6.66.83-2.5,1.67-7.5-4.58-13.74-3.75-3.75-2.5-11.66,2.5-16.66l.83-.83c2.92-2.92,6.25-4.58,9.16-4.58,2.92-.42,5.41.42,7.08,2.08,5.83,5.83,10.83,5,13.33,4.16,2.5-1.25,6.66-4.16,6.66-12.91,0-5.41,6.25-9.99,13.33-9.99h1.25c7.08,0,13.33,4.58,13.33,9.99,0,8.33,4.16,11.66,6.66,12.49,2.5.83,7.5,1.67,13.74-4.58,2.08-1.67,4.58-2.5,7.5-2.08,3.33.42,6.66,2.08,9.16,4.58l.42,1.25c2.5,2.5,4.16,5.83,4.58,9.16.42,2.92-.42,5.41-2.08,7.08-5.83,5.83-5,10.83-4.16,13.33,1.25,2.5,4.16,6.66,12.91,6.66,5.41,0,9.99,5.83,9.99,13.33v1.25Z"/>
    </g>
  </g>
</svg>