<?xml version="1.0" standalone="no"?>
<!DOCTYPE svg PUBLIC "-//W3C//DTD SVG 1.1//EN" "http://www.w3.org/Graphics/SVG/1.1/DTD/svg11.dtd">
<svg xmlns="http://www.w3.org/2000/svg" id="Layer_2" data-name="Layer 2" viewBox="0 0 254.19 216.06" width="254.19000244140625" height="216.05999755859375">
  <g id="Layer_1-2" data-name="Layer 1">
    <g>
      <path d="m218.36,104.83l-8.15-14.98c3.58-3.58,6.62-6.87,6.62-17.62,0-.45-.18-.89-.5-1.21-.32-.31-.76-.5-1.21-.5-11.01,0-14.19,3.19-17.88,6.88l-.16.16c-2.02,2.02-3.89,3.89-5.17,6.98-1.28-3.09-3.15-4.96-5.17-6.98l-.16-.16c-3.68-3.69-6.87-6.88-17.88-6.88-.45,0-.89.18-1.21.5-.31.32-.5.76-.5,1.21,0,8.6,1.95,12.43,4.56,15.45h-21.8c2.61-3.02,4.56-6.84,4.56-15.45,0-.45-.18-.89-.5-1.21-.32-.31-.76-.5-1.21-.5-11.01,0-14.19,3.19-17.88,6.88l-.16.16c-2.02,2.02-3.89,3.89-5.17,6.98-1.28-3.09-3.15-4.96-5.17-6.98l-.16-.16c-3.68-3.69-6.87-6.88-17.88-6.88-.45,0-.89.18-1.21.5-.31.32-.5.76-.5,1.21,0,8.6,1.95,12.43,4.56,15.45h-19.26v-15.41c0-.93-.75-1.69-1.67-1.71.66-.54,1.28-1.12,1.92-1.72l.13-.12c3.11-2.9,5.79-5.4,6.1-14.34.03-.95-.71-1.74-1.65-1.77-8.94-.3-11.62,2.2-14.73,5.1l-.13.12c-.95.88-1.86,1.73-2.67,2.73v-7.79c3.6-.55,6.35-3.27,6.36-6.53,0-.29.03-.51.06-.67.13.09.29.22.47.41,2.57,2.57,7.1,2.21,10.1-.79l.26-.26c1.41-1.4,2.28-3.2,2.47-5.06.19-1.95-.43-3.8-1.71-5.08-.2-.19-.34-.37-.43-.51.16-.03.36-.05.62-.05,3.63,0,6.58-3.46,6.58-7.71v-.37c0-4.26-2.98-7.71-6.64-7.71-.29,0-.51-.03-.67-.06.09-.13.22-.29.41-.47,2.57-2.58,2.21-7.11-.79-10.11l-.26-.26c-1.4-1.41-3.2-2.28-5.06-2.47-1.95-.19-3.8.43-5.08,1.71-.19.2-.37.34-.51.43-.03-.16-.05-.36-.05-.62,0-3.63-3.46-6.58-7.71-6.58h-.37c-4.26,0-7.71,2.98-7.71,6.64,0,.29-.03.51-.06.67-.13-.09-.29-.22-.47-.41-1.27-1.27-3.12-1.88-5.07-1.68-1.85.19-3.64,1.07-5.04,2.47l-.26.26c-3,3-3.34,7.55-.76,10.14.2.19.34.37.43.51-.16.03-.36.05-.62.05-3.63,0-6.58,3.46-6.58,7.71v.37c0,4.26,2.98,7.71,6.64,7.71.29,0,.51.03.67.06-.09.13-.22.29-.41.47-1.27,1.27-1.88,3.12-1.68,5.07.19,1.85,1.07,3.64,2.47,5.04l.26.26c3,3,7.55,3.34,10.14.76.19-.2.37-.34.51-.43.03.16.05.36.05.62,0,3.13,2.58,5.76,6.01,6.42v7.89c-.82-1.02-1.74-1.87-2.7-2.77l-.13-.12c-3.1-2.9-5.78-5.4-14.73-5.1-.94.04-1.69.83-1.65,1.77.31,8.94,2.99,11.44,6.1,14.34l.13.12c.64.59,1.26,1.17,1.91,1.71h-.83c-.94,0-1.71.77-1.71,1.71v15.41h-11.31c-.63,0-1.21.34-1.51.9l-8.85,16.27c-.29.53-.27,1.17.04,1.69.3.53.87.84,1.47.84h7.85v65.09c0,.94.77,1.71,1.71,1.71h157.82c.94,0,1.71-.77,1.71-1.71v-65.09h7.85c.61,0,1.16-.31,1.48-.85.3-.52.31-1.16.03-1.69Zm-91.24-.9c1.91-2.65,3.18-4.88,3.67-6.82,2.33-.06,4.28-.28,5.94-.62.08-.02.17-.03.25-.05.06-.01.12-.03.18-.04.17-.04.34-.08.5-.12.03,0,.05-.01.08-.02.19-.05.37-.1.56-.15.02,0,.04-.01.06-.02.18-.05.35-.1.52-.16.03-.01.07-.02.1-.03.14-.05.28-.09.42-.14.06-.02.13-.04.19-.07.09-.03.18-.07.26-.1.11-.04.22-.08.33-.13,0,0,.01,0,.02,0,2.72-1.1,4.5-2.66,6.25-4.38h28.42c3.13,3.09,6.37,5.65,14.94,6.01-.71,1.81-2.34,4.21-4.38,6.84h-58.32Zm72.39-23.96l.16-.16c3.19-3.2,5.55-5.56,13.71-5.85-.29,8.15-2.65,10.52-5.85,13.71l-.16.16c-.12.12-.23.23-.35.35-.05.04-.1.09-.15.13-.43.43-.86.85-1.3,1.26-1.22,1.11-2.52,2.05-4.27,2.76-.08.03-.16.07-.25.1-.02,0-.03.01-.05.02-1.79.66-4.12,1.1-7.34,1.22.29-8.15,2.65-10.51,5.84-13.7Zm-15.33-.16l.16.16c3.19,3.19,5.56,5.55,5.84,13.7-2.13-.07-3.87-.29-5.32-.62-.07-.02-.13-.03-.2-.05-.07-.02-.15-.04-.22-.05-3.84-.98-5.7-2.84-7.98-5.12l-.16-.16c-3.2-3.19-5.56-5.55-5.85-13.71,8.15.29,10.52,2.65,13.71,5.85Zm-47.19.16l.16-.16c3.19-3.2,5.55-5.56,13.71-5.85-.29,8.15-2.65,10.52-5.85,13.71l-.16.16c-2.28,2.28-4.14,4.14-7.98,5.12-.07.02-.15.04-.22.05-.07.02-.13.03-.2.05-1.45.33-3.18.54-5.32.62.29-8.15,2.65-10.51,5.84-13.7Zm-15.33-.16l.16.16c3.19,3.19,5.56,5.55,5.84,13.7-2.4-.08-4.29-.35-5.84-.75-.06-.02-.12-.03-.17-.05-.08-.02-.15-.04-.23-.06-2.69-.78-4.37-2.01-5.98-3.53-.38-.36-.76-.74-1.14-1.12-.03-.03-.06-.06-.1-.09-.08-.08-.16-.16-.25-.25l-.16-.16c-3.2-3.19-5.56-5.55-5.85-13.71,8.15.29,10.52,2.65,13.71,5.85Zm-39.57-19.48l.13-.12c2.63-2.46,4.43-4.14,10.53-4.2-.48,6.07-2.29,7.76-4.91,10.21l-.13.12c-2.63,2.46-4.43,4.14-10.53,4.2.48-6.08,2.29-7.77,4.91-10.21Zm-22.97-17.66c-.83-.84-1.38-1.92-1.49-2.97-.1-.93.15-1.75.69-2.29,1.93-1.93,1.69-3.51,1.37-4.28-.32-.78-1.27-2.08-4.05-2.08-1.75,0-3.21-1.97-3.21-4.28v-.37c0-2.33,1.44-4.28,3.16-4.28,2.73,0,3.68-1.29,4-2.07.32-.78.57-2.37-1.39-4.34-1.23-1.24-.89-3.66.76-5.3l.26-.26c.84-.83,1.92-1.38,2.97-1.49.93-.1,1.75.15,2.29.69,1.93,1.94,3.51,1.69,4.28,1.37.78-.32,2.09-1.27,2.09-4.05,0-1.75,1.97-3.21,4.28-3.21h.37c2.33,0,4.28,1.45,4.28,3.16,0,2.73,1.29,3.68,2.07,4s2.37.56,4.34-1.39c.55-.55,1.39-.81,2.33-.72,1.05.1,2.13.64,2.97,1.48l.26.26c1.64,1.64,2,4.05.79,5.26-1.93,1.93-1.69,3.51-1.37,4.28.32.78,1.27,2.08,4.05,2.08,1.75,0,3.21,1.97,3.21,4.28v.37c0,2.33-1.44,4.28-3.16,4.28-2.73,0-3.68,1.29-4,2.07-.32.78-.57,2.37,1.39,4.34.55.55.81,1.39.72,2.33-.1,1.05-.65,2.14-1.48,2.97l-.26.26c-.84.83-1.92,1.38-2.97,1.49-.93.1-1.75-.15-2.29-.69-1.93-1.93-3.51-1.69-4.28-1.37-.78.32-2.08,1.27-2.08,4.05,0,1.75-1.97,3.21-4.28,3.21h-.37c-2.33,0-4.28-1.45-4.28-3.16,0-2.73-1.29-3.68-2.07-4-.28-.12-.66-.22-1.12-.22-.84,0-1.96.34-3.23,1.62-1.24,1.23-3.66.89-5.3-.76l-.26-.26Zm-1.13,13.33c6.09.06,7.9,1.75,10.53,4.2l.13.12c2.62,2.46,4.43,4.14,4.91,10.21-6.09-.06-7.9-1.75-10.53-4.2l-.13-.12c-2.62-2.46-4.43-4.14-4.91-10.21Zm-8.22,35.08h10.3v4.87c0,.94.77,1.71,1.71,1.71s1.71-.77,1.71-1.71v-21.98h22.89v21.98c0,.94.77,1.71,1.71,1.71s1.72-.77,1.71-1.71v-4.87h22.57c3.12,3.07,6.34,5.63,14.84,6-.71,1.82-2.34,4.21-4.38,6.84H42.8l6.98-12.84Zm1.41,79.65v-37.68h9.61c.95,0,1.72-.77,1.72-1.71s-.77-1.71-1.71-1.71h-9.62v-22.14h68.76c-1.46,1.74-2.99,3.52-4.47,5.24-1.29,1.49-2.58,2.99-3.85,4.49h-19.57c-.94,0-1.71.77-1.71,1.71v28.69c0,.94.77,1.71,1.71,1.71h28.69c.94,0,1.71-.77,1.71-1.71v-28.69c0-.94-.77-1.71-1.71-1.71h-4.63c.65-.76,1.3-1.51,1.94-2.25,2.4-2.78,4.51-5.25,6.31-7.47h58.18c-1.46,1.74-2.99,3.52-4.47,5.24-1.29,1.49-2.58,2.99-3.85,4.49h-19.67c-.94,0-1.71.77-1.71,1.71v28.69c0,.94.77,1.71,1.71,1.71h28.69c.94,0,1.71-.77,1.71-1.71v-28.69c0-.94-.77-1.71-1.71-1.71h-4.53c.65-.76,1.3-1.51,1.94-2.25,2.4-2.78,4.51-5.25,6.31-7.47h18.61v46.98h-9.91c-.94,0-1.71.77-1.71,1.71s.77,1.71,1.71,1.71h9.91v12.84H51.19Zm49.44-29.97c.94,0,1.71-.77,1.71-1.71,0-4.59,5.13-11.52,10.89-18.42h5.82v25.26h-25.26v-25.26h15.02c-5.49,6.77-9.87,13.27-9.87,18.42,0,.94.77,1.71,1.71,1.71Zm62.61,0c.94,0,1.71-.77,1.71-1.71,0-4.59,5.13-11.52,10.89-18.42h5.71v25.26h-25.26v-25.26h15.12c-5.49,6.77-9.87,13.27-9.87,18.42,0,.94.77,1.71,1.71,1.71Zm26.49-36.84c1.92-2.65,3.18-4.88,3.67-6.82,7.84-.22,11.37-2.21,14.26-4.8l6.32,11.62h-24.26Z"/>
      <path d="m69.38,137.77h-11.14c-.94,0-1.71.77-1.71,1.71s.77,1.71,1.71,1.71h11.14c.94,0,1.71-.77,1.71-1.71s-.77-1.71-1.71-1.71Z"/>
      <path d="m195.68,162.18h-11.14c-.94,0-1.71.77-1.71,1.71s.77,1.71,1.71,1.71h11.14c.95,0,1.71-.77,1.71-1.71s-.77-1.71-1.71-1.71Z"/>
      <path d="m75.44,36.96c5.8,0,10.51-4.71,10.51-10.51s-4.72-10.51-10.51-10.51-10.51,4.71-10.51,10.51,4.71,10.51,10.51,10.51Zm0-17.6c3.91,0,7.08,3.19,7.09,7.09,0,3.91-3.19,7.08-7.09,7.08s-7.09-3.18-7.09-7.08,3.19-7.09,7.09-7.09Z"/>
    </g>
    <g>
      <path d="m0,191.58c0-1.01.49-1.51,1.48-1.51h7.63c1.15,0,2.21.14,3.19.43.97.29,1.81.71,2.5,1.28.7.56,1.24,1.25,1.64,2.07.4.82.59,1.75.59,2.81,0,1.2-.27,2.28-.81,3.24-.54.96-1.3,1.71-2.29,2.23v.07c.7.22,1.3.53,1.82.94.52.41.94.88,1.28,1.42.34.54.59,1.12.76,1.75.17.62.25,1.26.25,1.91,0,1.27-.23,2.38-.7,3.31-.47.94-1.11,1.71-1.93,2.32-.82.61-1.76,1.06-2.83,1.35-1.07.29-2.19.43-3.37.43H1.48c-.98,0-1.48-.5-1.48-1.51v-22.54Zm9.14,8.93c1.01,0,1.78-.32,2.32-.96s.81-1.42.81-2.34-.27-1.68-.81-2.28c-.54-.6-1.35-.9-2.43-.9h-4.43v6.48h4.54Zm.43,11.16c1.2,0,2.12-.35,2.75-1.05.64-.7.95-1.59.95-2.68s-.32-1.97-.97-2.66-1.56-1.03-2.74-1.03h-4.97v7.42h4.97Z"/>
      <path d="m22.24,191.58c0-1.01.49-1.51,1.48-1.51h1.58c.98,0,1.48.5,1.48,1.51v17.96c0,.46.04.82.13,1.1.08.28.2.49.34.65s.3.26.47.32c.17.06.34.1.5.13.34.05.61.17.81.38.2.2.31.51.31.92v1.22c0,.48-.11.86-.34,1.13-.23.28-.62.41-1.17.41-.62,0-1.26-.06-1.91-.18s-1.25-.38-1.8-.79c-.55-.41-1-1-1.35-1.78-.35-.78-.52-1.83-.52-3.15v-18.32Z"/>
      <path d="m31.44,210.56c0-.89.17-1.66.5-2.32.34-.66.79-1.22,1.37-1.69.58-.47,1.23-.85,1.96-1.13.73-.29,1.49-.52,2.29-.68.79-.17,1.58-.28,2.38-.34.79-.06,1.54-.09,2.23-.09h.76v-.43c0-1.2-.34-2.04-1.01-2.52-.67-.48-1.48-.72-2.41-.72-.77,0-1.49.11-2.16.34-.67.23-1.22.46-1.66.7-.94.41-1.61.2-2.02-.61l-.36-.68c-.46-.89-.26-1.56.58-2.02.6-.31,1.41-.64,2.43-.99,1.02-.35,2.21-.52,3.58-.52,2.4,0,4.27.64,5.6,1.91s2,3.07,2,5.4v9.97c0,1.01-.5,1.51-1.51,1.51h-1.22c-.98,0-1.48-.5-1.48-1.51v-.72c0-.29.01-.48.04-.58,0-.1.01-.17.04-.22h-.07c-.36.65-.82,1.22-1.37,1.73-.48.43-1.08.83-1.8,1.19-.72.36-1.58.54-2.59.54-.84,0-1.63-.13-2.36-.4-.73-.26-1.37-.64-1.93-1.12-.55-.48-.99-1.06-1.31-1.73-.32-.67-.49-1.43-.49-2.27Zm4.54-.4c0,.62.23,1.18.7,1.67.47.49,1.16.74,2.07.74.65,0,1.23-.14,1.75-.43.52-.29.95-.67,1.31-1.13s.64-.99.85-1.57c.2-.58.31-1.14.31-1.69v-.68h-.76c-.58,0-1.22.04-1.94.11-.72.07-1.4.22-2.03.43-.64.22-1.17.53-1.6.94-.43.41-.65.95-.65,1.62Z"/>
      <path d="m51.1,206.45c0-1.46.2-2.78.61-3.96s.98-2.18,1.73-3.02c.74-.84,1.62-1.49,2.63-1.94,1.01-.46,2.12-.68,3.35-.68,1.01,0,1.85.14,2.54.41.68.28,1.23.58,1.64.92.48.38.88.82,1.19,1.3h.07c-.02-.1-.04-.19-.04-.29-.02-.1-.04-.21-.04-.34v-7.25c0-1.01.49-1.51,1.48-1.51h1.58c.98,0,1.48.5,1.48,1.51v22.54c0,1.01-.49,1.51-1.48,1.51h-1.33c-.98,0-1.48-.46-1.48-1.37v-.72c0-.24.01-.4.04-.47,0-.07.01-.13.04-.18h-.07c-.34.6-.77,1.13-1.3,1.58-.46.41-1.05.77-1.78,1.1-.73.32-1.63.49-2.68.49-1.25,0-2.38-.23-3.38-.7-1.01-.47-1.87-1.12-2.57-1.96-.71-.84-1.25-1.85-1.64-3.04-.38-1.19-.58-2.49-.58-3.91Zm4.61.02c0,1.75.42,3.14,1.26,4.18.84,1.04,1.94,1.56,3.31,1.56.6,0,1.18-.11,1.73-.34.55-.23,1.04-.57,1.48-1.04.43-.47.77-1.06,1.03-1.79s.38-1.6.38-2.6c0-.72-.1-1.41-.29-2.08-.19-.67-.47-1.27-.85-1.79s-.85-.95-1.42-1.27c-.58-.32-1.25-.49-2.02-.49-.62,0-1.21.13-1.76.38-.55.25-1.04.62-1.46,1.09-.42.48-.76,1.07-1.01,1.78-.25.71-.38,1.51-.38,2.42Z"/>
      <path d="m72.27,199c-.19-.53-.18-.95.04-1.26.22-.31.6-.47,1.15-.47h1.69c.89,0,1.45.42,1.69,1.26l3.42,10.12c.1.26.18.56.25.9.07.34.14.64.22.9.07.34.14.66.22.97h.07c.05-.31.11-.64.18-.97.05-.26.11-.56.2-.9.08-.34.17-.64.27-.9l3.42-10.12c.24-.84.8-1.26,1.69-1.26h1.69c.55,0,.94.16,1.17.47.23.31.25.73.05,1.26l-5.54,15.41c-.26.82-.83,1.22-1.69,1.22h-2.88c-.89,0-1.45-.41-1.69-1.22l-5.62-15.41Z"/>
      <path d="m91.24,206.45c0-1.42.23-2.71.68-3.89.46-1.17,1.09-2.19,1.91-3.04.82-.85,1.8-1.51,2.95-1.98,1.15-.47,2.41-.7,3.78-.7,1.3,0,2.45.22,3.47.67,1.02.44,1.87,1.05,2.56,1.82.68.77,1.21,1.69,1.57,2.77.36,1.08.54,2.24.54,3.49,0,.41-.15.77-.45,1.08-.3.31-.68.47-1.13.47h-11.2c.07.84.27,1.57.59,2.2.32.62.73,1.15,1.22,1.57.49.42,1.06.74,1.69.95s1.3.32,2,.32c.84,0,1.6-.13,2.29-.4.68-.26,1.24-.53,1.67-.79.46-.22.85-.29,1.17-.22.32.07.61.31.85.72l.43.72c.46.86.29,1.54-.5,2.02-.6.38-1.43.79-2.48,1.21-1.06.42-2.3.63-3.74.63-1.51,0-2.88-.26-4.1-.77s-2.26-1.21-3.11-2.09c-.85-.88-1.51-1.9-1.96-3.06-.46-1.16-.68-2.39-.68-3.69Zm12.92-2.09c-.05-1.3-.41-2.3-1.1-3.01-.68-.71-1.55-1.06-2.61-1.06-1.18,0-2.15.37-2.93,1.12-.78.74-1.28,1.73-1.49,2.95h8.14Z"/>
      <path d="m112.42,198.78c0-1.01.49-1.51,1.48-1.51h1.4c1.01,0,1.51.5,1.51,1.51v1.73c0,.19,0,.36-.02.5-.01.14-.03.28-.05.4s-.04.24-.04.36h.07c.17-.55.42-1.1.76-1.66.34-.55.74-1.05,1.21-1.49.47-.44.98-.8,1.55-1.08.56-.28,1.17-.41,1.82-.41.5,0,.86.13,1.06.38.2.25.31.63.31,1.13v1.4c0,1.01-.52,1.51-1.55,1.51-.84,0-1.57.19-2.2.58-.62.38-1.14.89-1.55,1.51-.41.62-.71,1.33-.92,2.12-.2.79-.31,1.61-.31,2.45v5.9c0,1.01-.49,1.51-1.48,1.51h-1.58c-.98,0-1.48-.5-1.48-1.51v-15.34Z"/>
      <path d="m126.08,191.58c0-1.01.5-1.51,1.51-1.51h1.55c1.01,0,1.51.5,1.51,1.51v12.17h2.27l3.82-5.47c.41-.67,1.01-1.01,1.8-1.01h1.73c.62,0,1.02.18,1.19.54.17.36.08.78-.25,1.26l-4.57,6.41v.07l5.4,8.28c.31.53.38.96.2,1.3s-.58.5-1.21.5h-1.94c-.79,0-1.38-.35-1.76-1.04l-4.29-6.98h-2.38v6.52c0,1.01-.5,1.51-1.51,1.51h-1.55c-1.01,0-1.51-.5-1.51-1.51v-22.54Z"/>
      <path d="m145.27,214.19c-.41-.24-.64-.54-.68-.9-.05-.36.06-.74.32-1.15l.43-.65c.26-.38.56-.6.88-.65.32-.05.71.05,1.17.29.43.24.99.51,1.67.81.68.3,1.49.45,2.43.45.79,0,1.42-.17,1.87-.5.46-.34.68-.79.68-1.37,0-.5-.22-.91-.67-1.21-.44-.3-1.01-.58-1.69-.83-.68-.25-1.42-.52-2.2-.81-.78-.29-1.51-.65-2.2-1.08-.68-.43-1.25-.98-1.69-1.66-.44-.67-.67-1.54-.67-2.59,0-.89.19-1.68.56-2.38.37-.7.88-1.27,1.51-1.73s1.38-.8,2.23-1.04c.85-.24,1.76-.36,2.72-.36,1.22,0,2.26.16,3.11.47.85.31,1.52.6,2,.86.41.22.65.5.72.86.07.36.01.74-.18,1.15l-.36.65c-.22.43-.49.68-.83.76-.34.07-.73.01-1.19-.18-.41-.19-.9-.39-1.48-.59-.58-.2-1.25-.31-2.02-.31s-1.4.16-1.84.47c-.43.31-.65.76-.65,1.33,0,.5.22.91.67,1.22.44.31,1.01.59,1.69.83.68.24,1.42.5,2.2.77.78.28,1.51.63,2.2,1.06.68.43,1.25.98,1.69,1.66.44.67.67,1.52.67,2.56,0,.82-.16,1.57-.49,2.25-.32.68-.79,1.28-1.4,1.78-.61.5-1.35.9-2.21,1.19s-1.82.43-2.88.43c-1.49,0-2.74-.22-3.76-.65-1.02-.43-1.81-.84-2.36-1.22Z"/>
      <path d="m162.93,201.16h-.97c-.98,0-1.48-.5-1.48-1.51v-.61c0-1.01.5-1.51,1.51-1.51h1.04v-3.74c0-1.01.5-1.51,1.51-1.51h1.44c1.01,0,1.51.5,1.51,1.51v3.74h2.66c1.01,0,1.51.5,1.51,1.51v.61c0,1.01-.49,1.51-1.48,1.51h-2.7v7.13c0,.7.1,1.25.29,1.67s.43.76.72,1.01c.29.25.61.43.95.54s.68.17.99.2c.55.05.94.18,1.17.4.23.22.34.58.34,1.08v1.12c0,.55-.16.94-.47,1.17s-.78.34-1.4.34c-.82,0-1.65-.12-2.5-.36-.85-.24-1.62-.62-2.3-1.15-.68-.53-1.25-1.22-1.69-2.07-.44-.85-.67-1.9-.67-3.15v-7.92Z"/>
      <path d="m174.1,210.56c0-.89.17-1.66.5-2.32.34-.66.79-1.22,1.37-1.69.58-.47,1.23-.85,1.96-1.13.73-.29,1.49-.52,2.29-.68.79-.17,1.58-.28,2.38-.34.79-.06,1.54-.09,2.23-.09h.76v-.43c0-1.2-.34-2.04-1.01-2.52-.67-.48-1.48-.72-2.41-.72-.77,0-1.49.11-2.16.34-.67.23-1.22.46-1.66.7-.94.41-1.61.2-2.02-.61l-.36-.68c-.46-.89-.26-1.56.58-2.02.6-.31,1.41-.64,2.43-.99,1.02-.35,2.21-.52,3.58-.52,2.4,0,4.27.64,5.6,1.91s2,3.07,2,5.4v9.97c0,1.01-.5,1.51-1.51,1.51h-1.22c-.98,0-1.48-.5-1.48-1.51v-.72c0-.29.01-.48.04-.58,0-.1.01-.17.04-.22h-.07c-.36.65-.82,1.22-1.37,1.73-.48.43-1.08.83-1.8,1.19-.72.36-1.58.54-2.59.54-.84,0-1.63-.13-2.36-.4s-1.37-.64-1.93-1.12c-.55-.48-.99-1.06-1.31-1.73-.32-.67-.49-1.43-.49-2.27Zm4.54-.4c0,.62.23,1.18.7,1.67.47.49,1.16.74,2.07.74.65,0,1.23-.14,1.75-.43.52-.29.95-.67,1.31-1.13.36-.47.64-.99.85-1.57.2-.58.31-1.14.31-1.69v-.68h-.76c-.58,0-1.22.04-1.94.11-.72.07-1.4.22-2.03.43-.64.22-1.17.53-1.6.94-.43.41-.65.95-.65,1.62Z"/>
      <path d="m193.77,206.45c0-1.46.2-2.78.61-3.96s.98-2.18,1.73-3.02c.74-.84,1.62-1.49,2.63-1.94,1.01-.46,2.12-.68,3.35-.68,1.01,0,1.85.14,2.54.41.68.28,1.23.58,1.64.92.48.38.88.82,1.19,1.3h.07c-.02-.1-.04-.19-.04-.29-.02-.1-.04-.21-.04-.34v-7.25c0-1.01.49-1.51,1.48-1.51h1.58c.98,0,1.48.5,1.48,1.51v22.54c0,1.01-.49,1.51-1.48,1.51h-1.33c-.98,0-1.48-.46-1.48-1.37v-.72c0-.24.01-.4.04-.47,0-.07.01-.13.04-.18h-.07c-.34.6-.77,1.13-1.3,1.58-.46.41-1.05.77-1.78,1.1-.73.32-1.63.49-2.68.49-1.25,0-2.38-.23-3.38-.7-1.01-.47-1.87-1.12-2.57-1.96-.71-.84-1.25-1.85-1.64-3.04-.38-1.19-.58-2.49-.58-3.91Zm4.61.02c0,1.75.42,3.14,1.26,4.18.84,1.04,1.94,1.56,3.31,1.56.6,0,1.18-.11,1.73-.34s1.04-.57,1.48-1.04c.43-.47.77-1.06,1.03-1.79s.38-1.6.38-2.6c0-.72-.1-1.41-.29-2.08-.19-.67-.47-1.27-.85-1.79s-.85-.95-1.42-1.27c-.58-.32-1.25-.49-2.02-.49-.62,0-1.21.13-1.76.38s-1.04.62-1.46,1.09-.76,1.07-1.01,1.78c-.25.71-.38,1.51-.38,2.42Z"/>
      <path d="m215.73,206.45c0-1.42.23-2.71.68-3.89.46-1.17,1.09-2.19,1.91-3.04.82-.85,1.8-1.51,2.95-1.98,1.15-.47,2.41-.7,3.78-.7,1.3,0,2.45.22,3.47.67,1.02.44,1.87,1.05,2.56,1.82.68.77,1.21,1.69,1.57,2.77.36,1.08.54,2.24.54,3.49,0,.41-.15.77-.45,1.08-.3.31-.68.47-1.13.47h-11.2c.07.84.27,1.57.59,2.2s.73,1.15,1.22,1.57c.49.42,1.06.74,1.69.95s1.3.32,2,.32c.84,0,1.6-.13,2.29-.4.68-.26,1.24-.53,1.67-.79.46-.22.85-.29,1.17-.22.32.07.61.31.85.72l.43.72c.46.86.29,1.54-.5,2.02-.6.38-1.43.79-2.48,1.21-1.06.42-2.3.63-3.74.63-1.51,0-2.88-.26-4.1-.77s-2.26-1.21-3.11-2.09-1.51-1.9-1.96-3.06c-.46-1.16-.68-2.39-.68-3.69Zm12.92-2.09c-.05-1.3-.41-2.3-1.1-3.01-.68-.71-1.55-1.06-2.61-1.06-1.18,0-2.15.37-2.93,1.12-.78.74-1.28,1.73-1.49,2.95h8.14Z"/>
      <path d="m236.91,198.78c0-1.01.49-1.51,1.48-1.51h1.4c.98,0,1.48.5,1.48,1.51v1.12c0,.12,0,.23-.02.32-.01.1-.02.18-.02.25-.02.1-.04.18-.04.25h.07c.19-.38.47-.8.83-1.26.36-.46.8-.88,1.33-1.26.53-.38,1.15-.71,1.87-.97.72-.26,1.55-.4,2.48-.4,2.04,0,3.62.55,4.73,1.66s1.67,2.88,1.67,5.33v10.3c0,1.01-.5,1.51-1.51,1.51h-1.55c-1.01,0-1.51-.5-1.51-1.51v-9.36c0-1.13-.19-2.03-.58-2.72-.38-.68-1.15-1.03-2.3-1.03-.82,0-1.55.16-2.2.47-.65.31-1.2.74-1.66,1.3-.46.55-.81,1.19-1.06,1.93s-.38,1.51-.38,2.32v7.09c0,1.01-.49,1.51-1.48,1.51h-1.58c-.98,0-1.48-.5-1.48-1.51v-15.34Z"/>
    </g>
  </g>
</svg>